<svg width="32" height="32" viewBox="0 0 32 32" fill="none" xmlns="http://www.w3.org/2000/svg">
  <!-- Escudo base -->
  <path d="M16 2C16 2 4 6 4 16C4 26 16 30 16 30C16 30 28 26 28 16C28 6 16 2 16 2Z" fill="#635BFF" fill-opacity="0.2" stroke="#635BFF" stroke-width="2" stroke-linecap="round" stroke-linejoin="round"/>

  <!-- Nodos de red neuronal -->
  <circle cx="16" cy="10" r="2.5" fill="#635BFF"/>
  <circle cx="10" cy="16" r="2" fill="#635BFF"/>
  <circle cx="22" cy="16" r="2" fill="#635BFF"/>
  <circle cx="12" cy="22" r="2" fill="#635BFF"/>
  <circle cx="20" cy="22" r="2" fill="#635BFF"/>

  <!-- Conexiones de red -->
  <path d="M16 10L10 16M16 10L22 16M10 16L12 22M22 16L20 22M12 22L20 22" stroke="#635BFF" stroke-width="1.5" stroke-linecap="round"/>
</svg>
