<svg width="160" height="40" viewBox="0 0 160 40" fill="none" xmlns="http://www.w3.org/2000/svg">
  <!-- Escudo con cerebro/IA -->
  <g>
    <!-- Escudo base -->
    <path d="M20 4C20 4 8 8 8 18C8 28 20 36 20 36C20 36 32 28 32 18C32 8 20 4 20 4Z" fill="#635BFF" fill-opacity="0.15" stroke="#635BFF" stroke-width="2" stroke-linecap="round" stroke-linejoin="round"/>

    <!-- Nodos de red neuronal -->
    <circle cx="20" cy="14" r="2.5" fill="#635BFF"/>
    <circle cx="14" cy="20" r="2" fill="#635BFF"/>
    <circle cx="26" cy="20" r="2" fill="#635BFF"/>
    <circle cx="16" cy="26" r="2" fill="#635BFF"/>
    <circle cx="24" cy="26" r="2" fill="#635BFF"/>

    <!-- Conexiones de red -->
    <path d="M20 14L14 20M20 14L26 20M14 20L16 26M26 20L24 26M16 26L24 26" stroke="#635BFF" stroke-width="1.5" stroke-linecap="round"/>
  </g>

  <!-- Texto "regulAI" -->
  <text x="42" y="27" font-family="Inter, system-ui, sans-serif" font-size="20" font-weight="600" fill="#1E293B">
    <tspan>regul</tspan><tspan fill="#635BFF" font-weight="700">AI</tspan>
  </text>
</svg>
